#!OML:ASF X:\2005_08_12_Meinard\c3d\meinard.ASF
:FULLY-SPECIFIED
:DEGREES
2485
root 3.07136 16.1839 1.61585 519.172 -73.3671 -533.954
lowerback 48.5863 -0.882497 13.6352
upperback 4.0179 4.60902 -1.42079
thorax -14.7049 0.815706 -10.0134
lowerneck -14.7158 1.00438 -3.96209
upperneck 2.01297 2.14124 -3.49458
head 3.25426 0.801728 -0.299463
rclavicle -6.12257e-014 -2.8625e-014
rhumerus -50.1475 9.04335 -96.0419
rradius 74.8351
rwrist 12.4262
rhand 0.530377 -9.99762
rfingers 7.12502
rthumb 26.0983 -38.2244
lclavicle -6.12257e-014 -2.8625e-014
lhumerus -28.4894 -33.6551 -290.672
lradius 145.101
lwrist 180.567
lhand 39.6995 -7.14764
lfingers 7.12502
lthumb 62.1456 4.16371
rfemur -180.73 -184.417 191.911
rtibia 43.5409
rfoot 156.012 173.08
rtoes 9.75775
lfemur -190.876 169.763 -189.263
ltibia 60.1028
lfoot -17.5708 15.8909
ltoes 21.014
2486
root 3.09289 16.2073 1.65823 518.758 -72.8123 -532.649
lowerback 48.5589 -0.948816 13.4234
upperback 3.5968 4.58561 -0.913545
thorax -15.2639 0.756406 -9.35073
lowerneck -15.4798 1.95274 -3.12663
upperneck 2.81546 3.44323 -5.19332
head 3.74179 1.33413 -0.912096
rclavicle -2.0276e-014 -4.85035e-014
rhumerus -49.748 10.5194 -95.7783
rradius 75.0028
rwrist 11.7905
rhand 0.791023 -9.8778
rfingers 7.12502
rthumb 26.3478 -38.0675
lclavicle -2.0276e-014 -4.85035e-014
lhumerus -26.5984 -32.4731 -295.969
lradius 142.724
lwrist 193.692
lhand 47.8247 14.716
lfingers 7.12502
lthumb 68.4674 14.7974
rfemur -182.028 -185.079 192.395
rtibia 43.6573
rfoot 156.718 173.176
rtoes 9.87158
lfemur -192.215 169.623 -188.964
ltibia 60.0599
lfoot -17.136 16.4557
ltoes 20.8033
2487
root 3.12071 16.2345 1.69942 517.99 -72.2363 -531.091
lowerback 48.799 -1.05186 13.1227
upperback 3.14998 4.51847 -0.310254
thorax -15.932 0.672805 -8.51149
lowerneck -16.3444 2.978 -2.46559
upperneck 3.93213 4.90556 -6.85805
head 3.92739 1.90732 -1.3392
rclavicle -1.98785e-015 8.82604e-014
rhumerus -49.1986 12.3357 -95.5513
rradius 75.1687
rwrist 11.2208
rhand 0.845896 -9.74299
rfingers 7.12502
rthumb 26.4003 -37.9248
lclavicle -1.98785e-015 8.82604e-014
lhumerus -24.8414 -31.226 -301.422
lradius 140.24
lwrist 205.541
lhand 46.6076 35.3315
lfingers 7.12502
lthumb 67.5898 37.504
rfemur -183.251 -185.752 192.987
rtibia 43.8348
rfoot 157.504 173.292
rtoes 9.82008
lfemur -193.465 169.547 -188.518
ltibia 59.8236
lfoot -16.4859 17.061
ltoes 20.699
2488
root 3.15258 16.2592 1.74073 516.929 -71.6654 -529.508
lowerback 49.4383 -1.19533 12.6652
upperback 2.70864 4.36849 0.377219
thorax -16.7072 0.554217 -7.45169
lowerneck -16.7784 4.11842 -1.64176
upperneck 4.34233 6.45717 -8.6166
head 4.2571 2.54019 -1.87028
rclavicle -6.75868e-015 -1.59028e-014
rhumerus -48.3129 14.521 -95.309
rradius 75.1361
rwrist 10.7093
rhand 0.8208 -9.44077
rfingers 7.12502
rthumb 26.3763 -37.6262
lclavicle -6.75868e-015 -1.59028e-014
lhumerus -22.9266 -29.9914 -307.083
lradius 137.6
lwrist 215.242
lhand 42.0576 49.2879
lfingers 7.12502
lthumb 64.0773 57.9297
rfemur -184.204 -186.37 193.6
rtibia 44.0642
rfoot 158.292 173.519
rtoes 9.78404
lfemur -194.415 169.576 -187.979
ltibia 59.4451
lfoot -15.7624 17.6846
ltoes 20.4947
2489
root 3.18729 16.2809 1.78058 515.583 -71.084 -527.829
lowerback 50.3578 -1.34485 12.0786
upperback 2.28332 4.17572 1.15952
thorax -17.5384 0.426773 -6.18711
lowerneck -17.2354 5.34046 -0.713558
upperneck 4.62756 8.11048 -10.5025
head 4.61199 3.20659 -2.43456
rclavicle -2.90226e-014 3.73715e-014
rhumerus -47.2007 16.9903 -95.0639
rradius 74.9778
rwrist 10.2999
rhand 0.695976 -9.10555
rfingers 7.12502
rthumb 26.2568 -37.3088
lclavicle -2.90226e-014 3.73715e-014
lhumerus -20.7875 -28.448 -312.858
lradius 134.69
lwrist 223.171
lhand 37.8618 57.3165
lfingers 7.12502
lthumb 60.6003 70.4508
rfemur -184.958 -186.921 194.301
rtibia 44.3282
rfoot 159.101 173.697
rtoes 10.0429
lfemur -195.12 169.642 -187.311
ltibia 59.0015
lfoot -15.1182 18.2451
ltoes 20.0976
2490
root 3.22551 16.2973 1.81856 514.015 -70.5475 -525.997
lowerback 51.4111 -1.50545 11.439
upperback 1.87073 3.95326 2.00447
thorax -18.3846 0.30087 -4.79436
lowerneck -17.6031 6.57797 0.185588
upperneck 4.73977 9.7739 -12.2849
head 4.94328 3.88302 -2.9482
rclavicle 3.97569e-016 3.89618e-014
rhumerus -45.9887 19.581 -94.7196
rradius 74.8441
rwrist 9.96966
rhand 0.629777 -8.67238
rfingers 7.12502
rthumb 26.1935 -36.8851
lclavicle 3.97569e-016 3.89618e-014
lhumerus -18.6694 -26.5589 -318.428
lradius 131.444
lwrist 229.849
lhand 34.8674 61.1865
lfingers 7.12502
lthumb 58.0216 76.8885
rfemur -185.605 -187.451 195.09
rtibia 44.6057
rfoot 159.866 173.81
rtoes 10.158
lfemur -195.732 169.766 -186.552
ltibia 58.5842
lfoot -14.6293 18.6536
ltoes 19.6702
2491
root 3.26449 16.3095 1.85381 512.321 -70.086 -524.102
lowerback 52.4816 -1.66269 10.7333
upperback 1.53367 3.67958 2.90099
thorax -19.1454 0.178343 -3.2674
lowerneck -17.7988 7.80744 0.971924
upperneck 4.59207 11.4046 -13.8582
head 5.19072 4.56785 -3.37274
rclavicle 9.14409e-015 8.0309e-014
rhumerus -44.4393 22.2611 -94.2213
rradius 74.5759
rwrist 9.76551
rhand 0.707417 -8.19267
rfingers 7.12502
rthumb 26.2678 -36.3943
lclavicle 9.14409e-015 8.0309e-014
lhumerus -16.6734 -24.4661 -323.971
lradius 127.852
lwrist 235.571
lhand 33.5541 62.0072
lfingers 7.12502
lthumb 56.8707 78.7004
rfemur -186.139 -187.849 195.895
rtibia 44.8679
rfoot 160.604 173.909
rtoes 10.4509
lfemur -196.288 169.966 -185.753
ltibia 58.2406
lfoot -14.3 18.91
ltoes 19.2844
2492
root 3.30409 16.3143 1.88536 510.41 -69.6762 -522.076
lowerback 53.5701 -1.81555 10.0124
upperback 1.26603 3.38156 3.84036
thorax -19.8134 0.0647956 -1.6505
lowerneck -17.7705 8.98054 1.53994
upperneck 4.27805 12.951 -15.0681
head 5.3397 5.25084 -3.65364
rclavicle 1.27222e-014 2.06736e-014
rhumerus -42.6072 24.9249 -93.5747
rradius 74.2065
rwrist 9.73044
rhand 0.974398 -7.73206
rfingers 7.12502
rthumb 26.5233 -35.8954
lclavicle 1.27222e-014 2.06736e-014
lhumerus -14.6452 -22.5751 -329.732
lradius 123.654
lwrist 240.965
lhand 33.5071 60.7511
lfingers 7.12502
lthumb 56.8293 77.4785
rfemur -186.53 -188.043 196.736
rtibia 45.1026
rfoot 161.261 174.056
rtoes 10.7217
lfemur -196.803 170.237 -184.885
ltibia 57.9933
lfoot -13.9909 19.1266
ltoes 19.3196
2493
root 3.34287 16.3093 1.91306 508.35 -69.3378 -519.962
lowerback 54.6104 -1.96157 9.31291
upperback 1.0827 3.06424 4.77343
thorax -20.3481 -0.0413421 -0.022508
lowerneck -17.5026 10.0485 1.93516
upperneck 3.76112 14.3273 -15.9397
head 5.35565 5.89883 -3.82435
rclavicle -1.47101e-014 8.74653e-014
rhumerus -40.5164 27.4797 -92.8158
rradius 73.8069
rwrist 9.83922
rhand 1.38611 -7.39935
rfingers 7.12502
rthumb 26.9173 -35.5025
lclavicle -1.47101e-014 8.74653e-014
lhumerus -12.4011 -21.1793 -335.511
lradius 118.562
lwrist 246.252
lhand 33.9328 57.9368
lfingers 7.12502
lthumb 57.2037 74.3518
rfemur -186.805 -187.966 197.562
rtibia 45.3055
rfoot 161.777 174.263
rtoes 10.9391
lfemur -197.284 170.557 -183.986
ltibia 57.8644
lfoot -13.8073 19.2446
ltoes 19.5981
2494
root 3.3808 16.2941 1.93805 506.218 -69.0856 -517.882
lowerback 55.6753 -2.08276 8.5434
upperback 0.975236 2.6994 5.70161
thorax -20.7747 -0.150214 1.67562
lowerneck -16.8887 11.0126 2.12483
upperneck 2.78933 15.4915 -16.4839
head 5.12248 6.51468 -3.90826
rclavicle -2.74323e-014 -4.45278e-014
rhumerus -38.1814 29.981 -92.0142
rradius 73.4354
rwrist 10.0438
rhand 1.93778 -7.24994
rfingers 7.12502
rthumb 27.4451 -35.2706
lclavicle -2.74323e-014 -4.45278e-014
lhumerus -9.80087 -20.417 -341.187
lradius 111.984
lwrist 251.786
lhand 33.7874 54.5576
lfingers 7.12502
lthumb 57.0759 71.0802
rfemur -186.933 -187.702 198.329
rtibia 45.4928
rfoot 162.189 174.49
rtoes 11.1311
lfemur -197.658 170.948 -183.132
ltibia 57.8511
lfoot -13.7469 19.2959
ltoes 20.0265
2495
root 3.41781 16.2699 1.9603 504.03 -68.8834 -515.834
lowerback 56.726 -2.1457 7.71264
upperback 0.948056 2.32473 6.62226
thorax -21.0757 -0.251574 3.41347
lowerneck -15.8972 11.843 2.07399
upperneck 1.32765 16.3955 -16.6867
head 4.60643 7.08124 -3.92138
rclavicle -1.27222e-014 -2.22639e-014
rhumerus -35.7276 32.2572 -91.1789
rradius 73.1596
rwrist 10.3952
rhand 2.55321 -7.24892
rfingers 7.12502
rthumb 28.0335 -35.1748
lclavicle -1.27222e-014 -2.22639e-014
lhumerus -6.42887 -20.5883 -346.791
lradius 103.431
lwrist 257.717
lhand 32.539 51.9401
lfingers 7.12502
lthumb 55.9739 69.3501
rfemur -186.934 -187.386 199.075
rtibia 45.6786
rfoot 162.483 174.633
rtoes 11.2554
lfemur -197.917 171.344 -182.307
ltibia 57.9533
lfoot -13.8035 19.2578
ltoes 20.5647
